<svg xmlns="http://www.w3.org/2000/svg" xmlns:xlink="http://www.w3.org/1999/xlink" version="1.1" x="0px" y="0px" viewBox="0 50 500 300" style="enable-background: new 0 50 500 300" width="100%" xml:space="preserve">
    <style type="text/css">
        .st0 {
            fill: #cce9ff;
        }
        .st1 {
            fill: #062743;
        }
        .st2 {
            fill: #ffffff;
        }
        .st3 {
            font-family: "Karla";
        }
        .st4 {
            font-size: 16.3572px;
        }
        .st5 {
            letter-spacing: 3;
        }
        .st6 {
            fill: #f7f7f7;
        }
        .st7 {
            fill: #28a745;
        }
        .st8 {
            fill: #d3d3d3;
        }
        .st9 {
            font-size: 9.8086px;
        }
        .st10 {
            font-family: "Arvo";
        }
        .st11 {
            letter-spacing: 1;
        }
        .st12 {
            fill: #062743;
        }
        .st13 {
            fill: #28a745;
        }
        .st14 {
            fill: #f2f2f2;
        }
        .st15 {
            fill: #d4d4d4;
        }
        .st16 {
            fill: #062743;
        }
        .st17 {
            fill: url(#SVGID_1_);
        }
        .st18 {
            fill: url(#SVGID_2_);
        }
        .st19 {
            fill: url(#SVGID_3_);
        }
        .st20 {
            fill: url(#SVGID_4_);
        }
        .st21 {
            fill: url(#SVGID_5_);
        }
        .st22 {
            fill: url(#SVGID_6_);
        }
        .st23 {
            fill: url(#SVGID_7_);
        }
        .st24 {
            fill: url(#SVGID_8_);
        }
    </style>
    <g id="BACKGROUND"></g>
    <g id="OBJECTS">
        <g>
            <g>
                <path class="st0" d="M15.8,101.7v201.1c0,8,6.5,14.5,14.5,14.5h355.3c8,0,14.5-6.5,14.5-14.5V101.7H15.8z" />
                <path class="st1" d="M400.2,117.6V87.4c0-7-5.7-12.7-12.7-12.7H28.5c-7,0-12.7,5.7-12.7,12.7v30.2H400.2z" />
                <text transform="matrix(1 0 0 1 166.6285 101.9711)" class="st2 st3 st4 st5">MONTH</text>
                <!-- Calendar days (Background) -->
                <g>
                    <path class="st6" d="M65.6,172.7H37.7c-2.6,0-4.7-2.1-4.7-4.7v-10.9c0-2.6,2.1-4.7,4.7-4.7h27.9c2.6,0,4.7,2.1,4.7,4.7V168      C70.3,170.6,68.2,172.7,65.6,172.7z" />
                    <path class="st6" d="M116.7,172.7H88.9c-2.6,0-4.7-2.1-4.7-4.7v-10.9c0-2.6,2.1-4.7,4.7-4.7h27.9c2.6,0,4.7,2.1,4.7,4.7V168      C121.4,170.6,119.3,172.7,116.7,172.7z" />
                    <path class="st6" d="M167.8,172.7H140c-2.6,0-4.7-2.1-4.7-4.7v-10.9c0-2.6,2.1-4.7,4.7-4.7h27.9c2.6,0,4.7,2.1,4.7,4.7V168      C172.5,170.6,170.4,172.7,167.8,172.7z" />
                    <path class="st6" d="M219,172.7h-27.9c-2.6,0-4.7-2.1-4.7-4.7v-10.9c0-2.6,2.1-4.7,4.7-4.7H219c2.6,0,4.7,2.1,4.7,4.7V168      C223.7,170.6,221.5,172.7,219,172.7z" />
                    <path class="st6" d="M270.1,172.7h-27.9c-2.6,0-4.7-2.1-4.7-4.7v-10.9c0-2.6,2.1-4.7,4.7-4.7h27.9c2.6,0,4.7,2.1,4.7,4.7V168      C274.8,170.6,272.7,172.7,270.1,172.7z" />
                    <path class="st6" d="M321.2,172.7h-27.9c-2.6,0-4.7-2.1-4.7-4.7v-10.9c0-2.6,2.1-4.7,4.7-4.7h27.9c2.6,0,4.7,2.1,4.7,4.7V168      C325.9,170.6,323.8,172.7,321.2,172.7z" />
                    <path class="st6" d="M372.3,172.7h-27.9c-2.6,0-4.7-2.1-4.7-4.7v-10.9c0-2.6,2.1-4.7,4.7-4.7h27.9c2.6,0,4.7,2.1,4.7,4.7V168      C377,170.6,374.9,172.7,372.3,172.7z" />
                </g>
                <g>
                    <path class="st6" d="M65.6,204.4H37.7c-2.6,0-4.7-2.1-4.7-4.7v-10.9c0-2.6,2.1-4.7,4.7-4.7h27.9c2.6,0,4.7,2.1,4.7,4.7v10.9      C70.3,202.3,68.2,204.4,65.6,204.4z" />
                    <path class="st6" d="M116.7,204.4H88.9c-2.6,0-4.7-2.1-4.7-4.7v-10.9c0-2.6,2.1-4.7,4.7-4.7h27.9c2.6,0,4.7,2.1,4.7,4.7v10.9      C121.4,202.3,119.3,204.4,116.7,204.4z" />
                    <path class="st6" d="M167.8,204.4H140c-2.6,0-4.7-2.1-4.7-4.7v-10.9c0-2.6,2.1-4.7,4.7-4.7h27.9c2.6,0,4.7,2.1,4.7,4.7v10.9      C172.5,202.3,170.4,204.4,167.8,204.4z" />
                    <path class="st6" d="M219,204.4h-27.9c-2.6,0-4.7-2.1-4.7-4.7v-10.9c0-2.6,2.1-4.7,4.7-4.7H219c2.6,0,4.7,2.1,4.7,4.7v10.9      C223.7,202.3,221.5,204.4,219,204.4z" />
                    <path class="st6" d="M270.1,204.4h-27.9c-2.6,0-4.7-2.1-4.7-4.7v-10.9c0-2.6,2.1-4.7,4.7-4.7h27.9c2.6,0,4.7,2.1,4.7,4.7v10.9      C274.8,202.3,272.7,204.4,270.1,204.4z" />
                    <path class="st6" d="M321.2,204.4h-27.9c-2.6,0-4.7-2.1-4.7-4.7v-10.9c0-2.6,2.1-4.7,4.7-4.7h27.9c2.6,0,4.7,2.1,4.7,4.7v10.9      C325.9,202.3,323.8,204.4,321.2,204.4z" />
                    <path class="st6" d="M372.3,204.4h-27.9c-2.6,0-4.7-2.1-4.7-4.7v-10.9c0-2.6,2.1-4.7,4.7-4.7h27.9c2.6,0,4.7,2.1,4.7,4.7v10.9      C377,202.3,374.9,204.4,372.3,204.4z" />
                </g>
                <g>
                    <path class="st6" d="M65.6,236.2H37.7c-2.6,0-4.7-2.1-4.7-4.7v-10.9c0-2.6,2.1-4.7,4.7-4.7h27.9c2.6,0,4.7,2.1,4.7,4.7v10.9      C70.3,234,68.2,236.2,65.6,236.2z" />
                    <path class="st6" d="M116.7,236.2H88.9c-2.6,0-4.7-2.1-4.7-4.7v-10.9c0-2.6,2.1-4.7,4.7-4.7h27.9c2.6,0,4.7,2.1,4.7,4.7v10.9      C121.4,234,119.3,236.2,116.7,236.2z" />
                    <path class="st6" d="M167.8,236.2H140c-2.6,0-4.7-2.1-4.7-4.7v-10.9c0-2.6,2.1-4.7,4.7-4.7h27.9c2.6,0,4.7,2.1,4.7,4.7v10.9      C172.5,234,170.4,236.2,167.8,236.2z" />
                    <path class="st6" d="M219,236.2h-27.9c-2.6,0-4.7-2.1-4.7-4.7v-10.9c0-2.6,2.1-4.7,4.7-4.7H219c2.6,0,4.7,2.1,4.7,4.7v10.9      C223.7,234,221.5,236.2,219,236.2z" />
                    <path class="st6" d="M270.1,236.2h-27.9c-2.6,0-4.7-2.1-4.7-4.7v-10.9c0-2.6,2.1-4.7,4.7-4.7h27.9c2.6,0,4.7,2.1,4.7,4.7v10.9      C274.8,234,272.7,236.2,270.1,236.2z" />
                    <path class="st6" d="M321.2,236.2h-27.9c-2.6,0-4.7-2.1-4.7-4.7v-10.9c0-2.6,2.1-4.7,4.7-4.7h27.9c2.6,0,4.7,2.1,4.7,4.7v10.9      C325.9,234,323.8,236.2,321.2,236.2z" />
                    <path class="st6" d="M372.3,236.2h-27.9c-2.6,0-4.7-2.1-4.7-4.7v-10.9c0-2.6,2.1-4.7,4.7-4.7h27.9c2.6,0,4.7,2.1,4.7,4.7v10.9      C377,234,374.9,236.2,372.3,236.2z" />
                </g>
                <path class="st6" d="M65.6,267.9H37.7c-2.6,0-4.7-2.1-4.7-4.7v-10.9c0-2.6,2.1-4.7,4.7-4.7h27.9c2.6,0,4.7,2.1,4.7,4.7v10.9     C70.3,265.8,68.2,267.9,65.6,267.9z" />
                <path class="st6" d="M116.7,267.9H88.9c-2.6,0-4.7-2.1-4.7-4.7v-10.9c0-2.6,2.1-4.7,4.7-4.7h27.9c2.6,0,4.7,2.1,4.7,4.7v10.9     C121.4,265.8,119.3,267.9,116.7,267.9z" />
                <path class="st6" d="M167.8,267.9H140c-2.6,0-4.7-2.1-4.7-4.7v-10.9c0-2.6,2.1-4.7,4.7-4.7h27.9c2.6,0,4.7,2.1,4.7,4.7v10.9     C172.5,265.8,170.4,267.9,167.8,267.9z" />
                <path class="st6" d="M219,267.9h-27.9c-2.6,0-4.7-2.1-4.7-4.7v-10.9c0-2.6,2.1-4.7,4.7-4.7H219c2.6,0,4.7,2.1,4.7,4.7v10.9     C223.7,265.8,221.5,267.9,219,267.9z" />
                <path class="st7" d="M270.1,267.9h-27.9c-2.6,0-4.7-2.1-4.7-4.7v-10.9c0-2.6,2.1-4.7,4.7-4.7h27.9c2.6,0,4.7,2.1,4.7,4.7v10.9     C274.8,265.8,272.7,267.9,270.1,267.9z" />
                <path class="st6" d="M321.2,267.9h-27.9c-2.6,0-4.7-2.1-4.7-4.7v-10.9c0-2.6,2.1-4.7,4.7-4.7h27.9c2.6,0,4.7,2.1,4.7,4.7v10.9     C325.9,265.8,323.8,267.9,321.2,267.9z" />
                <path class="st6" d="M372.3,267.9h-27.9c-2.6,0-4.7-2.1-4.7-4.7v-10.9c0-2.6,2.1-4.7,4.7-4.7h27.9c2.6,0,4.7,2.1,4.7,4.7v10.9     C377,265.8,374.9,267.9,372.3,267.9z" />
                <g>
                    <path class="st6" d="M65.6,299.6H37.7c-2.6,0-4.7-2.1-4.7-4.7V284c0-2.6,2.1-4.7,4.7-4.7h27.9c2.6,0,4.7,2.1,4.7,4.7v10.9      C70.3,297.5,68.2,299.6,65.6,299.6z" />
                    <path class="st6" d="M116.7,299.6H88.9c-2.6,0-4.7-2.1-4.7-4.7V284c0-2.6,2.1-4.7,4.7-4.7h27.9c2.6,0,4.7,2.1,4.7,4.7v10.9      C121.4,297.5,119.3,299.6,116.7,299.6z" />
                    <path class="st6" d="M167.8,299.6H140c-2.6,0-4.7-2.1-4.7-4.7V284c0-2.6,2.1-4.7,4.7-4.7h27.9c2.6,0,4.7,2.1,4.7,4.7v10.9      C172.5,297.5,170.4,299.6,167.8,299.6z" />
                </g>
                <!-- Calendar days (Number) -->
                <g>
                    <g>
                        <text transform="matrix(1 0 0 1 54.8365 162.5287)" class="st8 st3 st9">01</text>
                        <text transform="matrix(1 0 0 1 107.107 162.5287)" class="st8 st3 st9">02</text>
                        <text transform="matrix(1 0 0 1 153.9166 162.5287)" class="st8 st3 st9">03</text>
                        <text transform="matrix(1 0 0 1 204.7955 162.5287)" class="st8 st3 st9">04</text>
                        <text transform="matrix(1 0 0 1 255.4576 162.5287)" class="st8 st3 st9">05</text>
                        <text transform="matrix(1 0 0 1 307.9371 162.5287)" class="st8 st3 st9">06</text>
                        <text transform="matrix(1 0 0 1 359.0523 162.5287)" class="st8 st3 st9">07</text>
                    </g>
                    <g>
                        <text transform="matrix(1 0 0 1 52.1285 195.2435)" class="st8 st3 st9">08</text>
                        <text transform="matrix(1 0 0 1 107.107 195.2435)" class="st8 st3 st9">09</text>
                        <text transform="matrix(1 0 0 1 155.7906 195.2435)" class="st8 st3 st9">10</text>
                        <text transform="matrix(1 0 0 1 208.8843 195.2435)" class="st8 st3 st9">11</text>
                        <text transform="matrix(1 0 0 1 259.5464 195.2435)" class="st8 st3 st9">12</text>
                        <text transform="matrix(1 0 0 1 309.3004 195.2435)" class="st8 st3 st9">13</text>
                        <text transform="matrix(1 0 0 1 360.4156 195.2435)" class="st8 st3 st9">14</text>
                    </g>
                    <g>
                        <text transform="matrix(1 0 0 1 55.6597 226.5951)" class="st8 st3 st9">15</text>
                        <text transform="matrix(1 0 0 1 107.107 226.5951)" class="st8 st3 st9">16</text>
                        <text transform="matrix(1 0 0 1 156.4283 226.5951)" class="st8 st3 st9">17</text>
                        <text transform="matrix(1 0 0 1 208.8843 226.5951)" class="st8 st3 st9">18</text>
                        <text transform="matrix(1 0 0 1 259.5464 226.5951)" class="st8 st3 st9">19</text>
                        <text transform="matrix(1 0 0 1 307.9371 226.5951)" class="st8 st3 st9">20</text>
                        <text transform="matrix(1 0 0 1 361.7789 226.5951)" class="st8 st3 st9">21</text>
                    </g>
                    <g>
                        <text transform="matrix(1 0 0 1 53.7086 259.3089)" class="st8 st3 st9">22</text>
                        <text transform="matrix(1 0 0 1 104.3814 259.3089)" class="st8 st3 st9">23</text>
                        <text transform="matrix(1 0 0 1 153.9068 259.3089)" class="st8 st3 st9">24</text>
                        <text transform="matrix(1 0 0 1 207.522 259.3089)" class="st8 st3 st9">25</text>
                        <text transform="matrix(1 0 0 1 307.9371 259.3089)" class="st8 st3 st9">27</text>
                        <text transform="matrix(1 0 0 1 361.7789 259.3089)" class="st8 st3 st9">28</text>
                    </g>
                    <g>
                        <text transform="matrix(1 0 0 1 53.2672 290.6605)" class="st8 st3 st9">29</text>
                        <text transform="matrix(1 0 0 1 104.3814 290.6605)" class="st8 st3 st9">30</text>
                        <text transform="matrix(1 0 0 1 156.6832 292.0228)" class="st8 st3 st9">31</text>
                    </g>
                </g>
                <!-- Weekday -->
                <g>
                    <g>
                        <text transform="matrix(1 0 0 1 42.5865 139.683)" class="st1 st10 st4 st11">M</text>
                    </g>
                    <g>
                        <text transform="matrix(1 0 0 1 94.3843 139.683)" class="st1 st10 st4 st11">T</text>
                    </g>
                    <g>
                        <text transform="matrix(1 0 0 1 146.1822 139.683)" class="st1 st10 st4 st11">W</text>
                    </g>
                    <g>
                        <text transform="matrix(1 0 0 1 197.98 139.683)" class="st1 st10 st4 st11">T</text>
                    </g>
                    <g>
                        <text transform="matrix(1 0 0 1 249.7769 139.683)" class="st1 st10 st4 st11">F</text>
                    </g>
                    <g>
                        <text transform="matrix(1 0 0 1 301.5748 139.683)" class="st1 st10 st4 st11">S</text>
                    </g>
                    <g>
                        <text transform="matrix(1 0 0 1 353.3726 139.683)" class="st1 st10 st4 st11">S</text>
                    </g>
                </g>
                <circle class="st2" cx="337.5" cy="96.7" r="5.5" />
                <circle class="st2" cx="355.2" cy="96.7" r="5.5" />
                <circle class="st7" cx="372.9" cy="96.7" r="5.5" />
            </g>
            <path class="st12" d="M204.6,234.3c-21.8,0-39.6-17.8-39.6-39.6s17.8-39.6,39.6-39.6s39.6,17.8,39.6,39.6S226.4,234.3,204.6,234.3    z" />
            <circle class="st13" cx="204.6" cy="194.7" r="26.4" />
            <circle class="st16" cx="408.5" cy="222" r="75.7" />
            <path class="st0" d="M454.2,267.7c-25.2,25.2-66.1,25.2-91.3,0c-25.2-25.2-25.2-66.1,0-91.3c25.2-25.2,66.1-25.2,91.3,0    S479.4,242.5,454.2,267.7z" />
            <!-- Hour and Minute hand -->
            <path class="st1" d="M434.2,218.9h-22.4v-31.6c0-1.7-1.4-3.1-3.1-3.1c-1.7,0-3.1,1.4-3.1,3.1v34.7c0,1.7,1.4,3.1,3.1,3.1h25.4    c1.7,0,3.1-1.4,3.1-3.1S435.9,218.9,434.2,218.9z" />
            <g>
                <g>
                    <linearGradient id="SVGID_1_" gradientUnits="userSpaceOnUse" x1="408.5327" y1="171.6229" x2="408.5327" y2="164.4294">
                        <stop offset="0" style="stop-color: #ff8f00" />
                        <stop offset="1" style="stop-color: #ffbd00" />
                    </linearGradient>
                    <path class="st17" d="M408.5,164.4c-0.5,0-1,0.4-1,1v5.3c0,0.5,0.4,1,1,1c0.5,0,1-0.4,1-1v-5.3      C409.5,164.9,409.1,164.4,408.5,164.4z" />
                    <linearGradient id="SVGID_2_" gradientUnits="userSpaceOnUse" x1="408.5327" y1="279.6374" x2="408.5327" y2="272.4439">
                        <stop offset="0" style="stop-color: #ff8f00" />
                        <stop offset="1" style="stop-color: #ffbd00" />
                    </linearGradient>
                    <path class="st18" d="M408.5,272.4c-0.5,0-1,0.4-1,1v5.3c0,0.5,0.4,1,1,1c0.5,0,1-0.4,1-1v-5.3      C409.5,272.9,409.1,272.4,408.5,272.4z" />
                    <linearGradient id="SVGID_3_" gradientUnits="userSpaceOnUse" x1="354.5255" y1="222.9965" x2="354.5255" y2="221.0702">
                        <stop offset="0" style="stop-color: #ff8f00" />
                        <stop offset="1" style="stop-color: #ffbd00" />
                    </linearGradient>
                    <path class="st19" d="M357.2,221.1h-5.3c-0.5,0-1,0.4-1,1c0,0.5,0.4,1,1,1h5.3c0.5,0,1-0.4,1-1      C358.1,221.5,357.7,221.1,357.2,221.1z" />
                    <linearGradient id="SVGID_4_" gradientUnits="userSpaceOnUse" x1="462.5399" y1="222.9965" x2="462.5399" y2="221.0702">
                        <stop offset="0" style="stop-color: #ff8f00" />
                        <stop offset="1" style="stop-color: #ffbd00" />
                    </linearGradient>
                    <path class="st20" d="M465.2,221.1h-5.3c-0.5,0-1,0.4-1,1c0,0.5,0.4,1,1,1h5.3c0.5,0,1-0.4,1-1      C466.1,221.5,465.7,221.1,465.2,221.1z" />
                    <linearGradient id="SVGID_5_" gradientUnits="userSpaceOnUse" x1="370.3439" y1="186.67" x2="370.3439" y2="181.0191">
                        <stop offset="0" style="stop-color: #ff8f00" />
                        <stop offset="1" style="stop-color: #ffbd00" />
                    </linearGradient>
                    <path class="st21" d="M369.2,181.3c-0.4-0.4-1-0.4-1.4,0c-0.4,0.4-0.4,1,0,1.4l3.7,3.7c0.4,0.4,1,0.4,1.4,0c0.4-0.4,0.4-1,0-1.4      L369.2,181.3z" />
                    <linearGradient id="SVGID_6_" gradientUnits="userSpaceOnUse" x1="446.7216" y1="263.0477" x2="446.7216" y2="257.397">
                        <stop offset="0" style="stop-color: #ff8f00" />
                        <stop offset="1" style="stop-color: #ffbd00" />
                    </linearGradient>
                    <path class="st22" d="M445.5,257.7c-0.4-0.4-1-0.4-1.4,0c-0.4,0.4-0.4,1,0,1.4l3.7,3.7c0.4,0.4,1,0.4,1.4,0c0.4-0.4,0.4-1,0-1.4      L445.5,257.7z" />
                    <linearGradient id="SVGID_7_" gradientUnits="userSpaceOnUse" x1="370.3439" y1="263.0477" x2="370.3439" y2="257.397">
                        <stop offset="0" style="stop-color: #ff8f00" />
                        <stop offset="1" style="stop-color: #ffbd00" />
                    </linearGradient>
                    <path class="st23" d="M371.5,257.7l-3.7,3.7c-0.4,0.4-0.4,1,0,1.4c0.4,0.4,1,0.4,1.4,0l3.7-3.7c0.4-0.4,0.4-1,0-1.4      C372.5,257.3,371.9,257.3,371.5,257.7z" />
                    <linearGradient id="SVGID_8_" gradientUnits="userSpaceOnUse" x1="446.7216" y1="186.67" x2="446.7216" y2="181.0191">
                        <stop offset="0" style="stop-color: #ff8f00" />
                        <stop offset="1" style="stop-color: #ffbd00" />
                    </linearGradient>
                    <path class="st24" d="M447.9,181.3l-3.7,3.7c-0.4,0.4-0.4,1,0,1.4c0.4,0.4,1,0.4,1.4,0l3.7-3.7c0.4-0.4,0.4-1,0-1.4      C448.9,180.9,448.3,180.9,447.9,181.3z" />
                </g>
                <!-- 8 hands (60 mintues) -->
                <g>
                    <path class="st1" d="M408.5,164.4c-0.5,0-1,0.4-1,1v5.3c0,0.5,0.4,1,1,1c0.5,0,1-0.4,1-1v-5.3      C409.5,164.9,409.1,164.4,408.5,164.4z" />
                    <path class="st1" d="M408.5,272.4c-0.5,0-1,0.4-1,1v5.3c0,0.5,0.4,1,1,1c0.5,0,1-0.4,1-1v-5.3      C409.5,272.9,409.1,272.4,408.5,272.4z" />
                    <path class="st1" d="M357.2,221.1h-5.3c-0.5,0-1,0.4-1,1c0,0.5,0.4,1,1,1h5.3c0.5,0,1-0.4,1-1      C358.1,221.5,357.7,221.1,357.2,221.1z" />
                    <path class="st1" d="M465.2,221.1h-5.3c-0.5,0-1,0.4-1,1c0,0.5,0.4,1,1,1h5.3c0.5,0,1-0.4,1-1      C466.1,221.5,465.7,221.1,465.2,221.1z" />
                    <path class="st1" d="M369.2,181.3c-0.4-0.4-1-0.4-1.4,0c-0.4,0.4-0.4,1,0,1.4l3.7,3.7c0.4,0.4,1,0.4,1.4,0c0.4-0.4,0.4-1,0-1.4      L369.2,181.3z" />
                    <path class="st1" d="M445.5,257.7c-0.4-0.4-1-0.4-1.4,0c-0.4,0.4-0.4,1,0,1.4l3.7,3.7c0.4,0.4,1,0.4,1.4,0c0.4-0.4,0.4-1,0-1.4      L445.5,257.7z" />
                    <path class="st1" d="M371.5,257.7l-3.7,3.7c-0.4,0.4-0.4,1,0,1.4c0.4,0.4,1,0.4,1.4,0l3.7-3.7c0.4-0.4,0.4-1,0-1.4      C372.5,257.3,371.9,257.3,371.5,257.7z" />
                    <path class="st1" d="M447.9,181.3l-3.7,3.7c-0.4,0.4-0.4,1,0,1.4c0.4,0.4,1,0.4,1.4,0l3.7-3.7c0.4-0.4,0.4-1,0-1.4      C448.9,180.9,448.3,180.9,447.9,181.3z" />
                </g>
            </g>
            <polygon class="st2" points="196.1,211.4 185,200.3 189.4,195.8 196.1,202.5 217.4,180.7 221.9,185" />
        </g>
    </g>
</svg>
