<svg xmlns="http://www.w3.org/2000/svg" xmlns:xlink="http://www.w3.org/1999/xlink" version="1.1" id="Layer_2" x="0px" y="0px" viewBox="0 200 1080 900" style="enable-background: new 0 200 1080 900" xml:space="preserve">
    <style xmlns="http://www.w3.org/2000/svg" type="text/css">
        .st0 {
            fill: #1a87d8;
        }
        .st1 {
            fill: #2a94f4;
        }
        .st2 {
            fill: #b0e1ff;
        }
        .st3 {
            fill: #f7f7f7;
        }
        .st4 {
            fill: none;
            stroke: #d3d3d3;
            stroke-miterlimit: 10;
            stroke-dasharray: 12.1401, 12.1401;
        }
        .st5 {
            fill: #cce9ff;
        }
        .st6 {
            fill: #0e538c;
        }
        .st7 {
            fill: #0b4870;
        }
        .st8 {
            fill: none;
            stroke: #d3d3d3;
            stroke-width: 17;
            stroke-miterlimit: 10;
        }
        .st9 {
            fill: #062743;
        }
        .st10 {
            fill: #0a3851;
        }
        .st11 {
            fill: #fcd2b1;
        }
        .st12 {
            fill: #062743;
        }
        .st13 {
            fill: #fcd2b1;
        }
        .st14 {
            fill: #ffe3ca;
        }
    </style>
    <g xmlns="http://www.w3.org/2000/svg">
        <g>
            <g>
                <path class="st0" d="M88.1,875.8c-5.4-25.2-22-47.7-44.5-60.3c12,22.7,26.4,44.1,42.9,63.9L88.1,875.8z" />
            </g>
            <g>
                <path class="st1" d="M94.2,885.3C72.8,855.4,62,818,64.3,781.2c13.9,33.9,24.4,69.2,31.2,105.2L94.2,885.3z" />
            </g>
            <g>
                <path class="st0" d="M88,886.3c-0.7-18.4-1.3-37,1.6-55.2s9.6-36.2,22-49.9c1.9,37.7-7.2,75.9-26,108.7L88,886.3z" />
            </g>
            <g>
                <path class="st2" d="M88.9,888c-12.1-34.8-10.1-74.3,5.4-107.7c9.7,34.9,1.1,72-7.5,107.2L88.9,888z" />
            </g>
            <g>
                <path class="st1" d="M90.5,875.1c3.3-30.5,23.7-58.7,51.7-71.3c-11.4,30.5-30.8,57.9-55.7,78.8L90.5,875.1z" />
            </g>
        </g>
        <path class="st3" d="M119.3,869.7l-3.5,59.3c0,2.9-2.3,5.2-5.2,5.2H69.6c-2.9,0-5.2-2.3-5.2-5.2l-0.8-13.4l-2.7-45.9   c0-2.9,2.3-5.2,5.2-5.2h48.1c1.9,0,3.5,1,4.4,2.5v0C119.1,867.8,119.3,868.7,119.3,869.7z" />
        <g>
            <path class="st3" d="M119.3,869.7l-3.5,59.3c0,2.9-2.3,5.2-5.2,5.2H69.6c-2.9,0-5.2-2.3-5.2-5.2l-0.8-13.4    c19.2-5.5,39-29.2,55-48.6C119.1,867.8,119.3,868.7,119.3,869.7z" />
        </g>
    </g>
    <g xmlns="http://www.w3.org/2000/svg">
        <circle class="st4" cx="866.3" cy="300.1" r="123.7" />
    </g>
    <g xmlns="http://www.w3.org/2000/svg">
        <path class="st5" d="M350.6,313.5c-23.9,10.4-47.6,23.2-64.3,43.2c-16.7,20-25.1,48.7-15,72.8c13.4,32.1,55.8,50.8,56,85.6   c0.1,24.9-22.9,43.9-46.1,53c-23.2,9.1-48.9,12.3-70,25.6c-31.9,20-46.8,58.7-52.9,95.8c-6.3,38.5-3.8,82.4,23.5,110.4   c33.9,34.7,89.9,30.8,137.9,23.4c64-9.9,127.7-21.5,191.5-33.1c139.7-25.5,279.4-50.9,419-76.4c15-2.7,30.6-5.7,42.7-14.9   c24.2-18.2,26.2-55.7,12.2-82.4c-14-26.8-40-45-65.8-60.7S866,525,846.7,501.7s-28.9-57.7-14.3-84.1c12.4-22.4,39-34.4,50.6-57.2   c15.3-30.1-2.3-68.5-30.1-87.7C825.2,253.5,476.7,258.3,350.6,313.5z" />
    </g>
    <g xmlns="http://www.w3.org/2000/svg">
        <g>
            <path class="st5" d="M168.9,912.2c-1.6,0-3-1.4-3-3c0-1.6,1.4-3,3-3h773.9v6.1H168.9z" />
            <path class="st6" d="M955.3,893.6H168.9c-8.5,0-15.5,7-15.5,15.5s7,15.5,15.5,15.5h786.4V893.6L955.3,893.6z" />
        </g>
        <g>
            <polygon class="st5" points="423,881.7 510.9,555.5 1024,555.5 945.6,881.7   " />
            <path class="st7" d="M1008.8,567.5l-72.6,302.2H438.6L520,567.5H1008.8 M1039.1,543.6H501.7l-94.3,350.1h547.6L1039.1,543.6    L1039.1,543.6z" />
        </g>
        <g>
            <path class="st5" d="M704.1,912.2c-1.6,0-3-1.4-3-3c0-1.6,1.4-3,3-3h238.7v6.1H704.1z" />
            <path class="st1" d="M955.3,893.6H704.1c-8.5,0-15.5,7-15.5,15.5s7,15.5,15.5,15.5h251.2V893.6L955.3,893.6z" />
        </g>
        <path class="st3" d="M379.7,907.8h153.6c1.3,0,2.3,1,2.3,2.3v1c0,1.3-1,2.3-2.3,2.3H379.7c-1.3,0-2.3-1-2.3-2.3v-1   C377.5,908.9,378.5,907.8,379.7,907.8z" />
        <rect x="896.2" y="902.8" class="st7" width="43.9" height="14" />
        <circle class="st7" cx="866.3" cy="909.8" r="9.1" />
        <circle class="st7" cx="835.9" cy="909.8" r="9.1" />
        <circle class="st8" cx="712.5" cy="710.3" r="70.2" />
        <g>
            <path class="st1" d="M769.9,733.8c-9.3,22.6-31.5,38.5-57.4,38.5c-34.2,0-62.1-27.8-62.1-62.1c0-34.2,27.8-62.1,62.1-62.1    c23.8,0,44.5,13.4,54.9,33.1l14.4-7.6c-13.1-24.8-39.3-41.8-69.3-41.8c-43.2,0-78.3,35.1-78.3,78.3c0,43.2,35.1,78.3,78.3,78.3    c32.4,0,60.2-19.7,72.1-47.8L769.9,733.8z" />
        </g>
        <g>
            <path class="st1" d="M683,732.4c-6.3,0-9.8-3.6-9.8-10v-3.1c0-3.8,1.1-6.8,3.9-8.3c-2.6-1.4-3.9-4.1-3.9-8v-1.3    c0-6.4,3.5-10,9.8-10s9.8,3.6,9.8,10v1.3c0,3.9-1.3,6.6-3.9,8c2.7,1.5,3.9,4.5,3.9,8.3v3.1C692.8,728.7,689.3,732.4,683,732.4z     M679.5,704.1c0,3.2,1.5,4.2,3.5,4.2c2,0,3.5-1,3.5-4.2v-2.2c0-3.6-1.5-4.6-3.5-4.6c-2,0-3.5,1-3.5,4.6V704.1z M683,726.7    c2,0,3.5-1,3.5-4.5v-3.7c0-3.1-1.3-4.5-3.5-4.5s-3.5,1.4-3.5,4.5v3.7C679.5,725.7,681,726.7,683,726.7z" />
            <path class="st1" d="M702.2,719.1v3.7c0,2.8,1.3,3.9,3.2,3.9c2,0,3.2-1,3.2-3.9V714c0-2.8-1.3-3.9-3.2-3.9c-2,0-3.2,1.1-3.2,3.9    v1.2h-5.9l1.1-23.1h16.5v5.7H703l-0.5,9.5c1.1-1.9,3-2.9,5.5-2.9c4.6,0,6.9,3.2,6.9,9.1v8.9c0,6.4-3.2,10-9.3,10    c-6.2,0-9.3-3.6-9.3-10v-3.3H702.2z" />
            <path class="st1" d="M718.8,698.1c0-4.1,2.1-6.4,6-6.4s6,2.3,6,6.4v13.1c0,4.1-2.1,6.4-6,6.4s-6-2.3-6-6.4V698.1z M722.7,711.5    c0,1.8,0.7,2.5,2.1,2.5c1.3,0,2.1-0.7,2.1-2.5v-13.7c0-1.8-0.8-2.5-2.1-2.5c-1.3,0-2.1,0.7-2.1,2.5V711.5z M740.5,692.1h3.7    l-15.7,39.9h-3.7L740.5,692.1z M738.5,712.7c0-4.1,2.1-6.4,6-6.4c3.9,0,6,2.3,6,6.4v13.1c0,4.1-2.1,6.4-6,6.4c-3.9,0-6-2.3-6-6.4    V712.7z M742.5,726.1c0,1.8,0.7,2.5,2.1,2.5c1.3,0,2.1-0.7,2.1-2.5v-13.7c0-1.8-0.8-2.5-2.1-2.5c-1.3,0-2.1,0.7-2.1,2.5V726.1z" />
        </g>
    </g>
    <path xmlns="http://www.w3.org/2000/svg" class="st9" d="M57.9,918.9h964.2c6.6,0,12,5.4,12,12v55.6c0,6.6-5.4,12-12,12H57.9c-6.6,0-12-5.4-12-12v-55.6  C45.9,924.3,51.3,918.9,57.9,918.9z" />
    <g xmlns="http://www.w3.org/2000/svg">
        <path class="st10" d="M167.6,916.1c6.8,7.7,27.7,30.9,46,30.9c-15.7,3.9-37.8,2.2-41.8-6c-1.8,6.9-0.2,8.7-0.2,8.7l-6.6-0.2   l-2.2-32.6L167.6,916.1z" />
        <path class="st10" d="M200.6,642.4c6.2,25.2,30.8,244.2,27.9,278c-3.5,0.1-11.9,0.3-11.9,0.3s-20.6-97.8-11.8-118.4   c-23.9-39.6-26.5-162.9-26.5-162.9L200.6,642.4z" />
        <path class="st7" d="M192.9,644.2l-17.6,277.7l-13.9-0.4c0,0-8-94.6,5.5-123.5c-12.4-51.3-23.1-88.3,1-156.4   C179.6,626.9,192.9,644.2,192.9,644.2z" />
        <path class="st11" d="M198.1,565c19,10.4,40.5,100,59,17.1c6.5,0.4,10.1,0.3,10.1,0.3s-4.3,92.9-73.1,15.1   C186.3,555,198.1,565,198.1,565z" />
        <g>
            <path class="st7" d="M204,530c5.4-2,8.2-8.4,7.3-14.1s-4.9-10.5-9.6-13.6c-13.2-8.8-33.1-5.2-42.3,7.7c-5.7,8-8.3,19.3-17.3,23.2    c-5.2,2.3-11.4,1.3-16.7-0.9c-5.3-2.2-10-5.5-15.2-8c-13.8-6.7-30.5-7.3-44.7-1.5s-25.8,17.8-31,32.3c-2.8,7.7-3.8,16.3-1,24.1    c2.9,8.2,9.7,14.6,17.4,18.6s16.4,5.8,25,7.1c11.2,1.7,22.5,2.7,33.7,1.1c11.2-1.6,22.2-6,30.3-13.8c8.5-8.2,13.3-19.6,21.6-28    c12.7-12.8,32.8-17.9,41.8-33.5" />
        </g>
        <path class="st12" d="M155.3,564.8c-32.2,22-82.8,151.4,34.5,94c0.5-3.1-1.6-13-1.6-13S85.6,695.1,159.7,593   C170.8,584.2,155.3,564.8,155.3,564.8z" />
        <path class="st12" d="M192.4,562.9c5.7,2,5.7,2,5.7,2s16.6,30.8,18.3,35.5c-2,7.4-15,27.8-15.8,42c-9,3-23.3,3.6-32.8-0.9   c-1.3-4-12.5-76.7-12.5-76.7l20.7-0.6L192.4,562.9z" />
        <g>
            <path class="st13" d="M189,549.5c0.2,2,0.9,11.6,3.4,13.4c-3.2,5.9-4.1,11.7-4.1,11.7s-9.8-9.1-12.4-10.4    c1.5-5.5,6.7-18.9,6.7-18.9L189,549.5z" />
            <path class="st14" d="M204.5,519.5c1.5,8.6,2.8,21.2-2.2,29.1c-2.1,3.3-5.9,5.1-9.7,4.8c-12.1-1-13.6-4.7-15.3-12.4    C175.4,532.3,177.1,501.5,204.5,519.5z" />
            <g>
                <path class="st7" d="M208.5,514.3c-5.8,7.8-15,13-24.6,13.9c-4.1,0.4-8.4,0-12.5,0.7c-4.1,0.7-8.3,2.6-10.3,6.3     C161.1,535.2,173.1,489.9,208.5,514.3z" />
            </g>

            <ellipse transform="matrix(0.844 -0.5364 0.5364 0.844 -260.7324 178.6222)" class="st14" cx="176.7" cy="537.5" rx="3.7" ry="4.9" />
            <circle class="st12" cx="176.5" cy="542" r="1.7" />
        </g>
        <path class="st10" d="M223.9,917.5c6.8,7.7,27.7,30.9,46,30.9c-15.7,3.9-37.8,2.2-41.8-6c-1.8,6.9-0.2,8.7-0.2,8.7l-6.6-0.2   l-2.2-32.6L223.9,917.5z" />
        <g>
            <polygon class="st3" points="245.2,550.9 154.5,737.2 189.4,754.3 280.3,568.2   " />
            <path class="st3" d="M245.2,550.9c0,0-14.8-32-14.2-35.8c0.6-3.8,13.7-43.4,39.2-46.4c-0.6,12.4-12.1,47-5.9,52.7    c6.3,5.7,27.2,13.1,27.2,13.1s28.9-37.3,32.5-44.5c8.6,11.3,2.1,57-5.8,66.8c-17,8.7-38.1,11.4-38.1,11.4l-18.5-0.5L245.2,550.9z" />
            <path class="st3" d="M101.5,778.3c-0.8,28.6,21.8,52.5,50.4,53.3c28.6,0.8,52.5-21.8,53.3-50.4c0.8-28.6-21.8-52.5-50.4-53.3    C126.2,727.1,102.3,749.7,101.5,778.3z M126.3,779c0.4-14.9,12.8-26.7,27.8-26.3c14.9,0.4,26.7,12.8,26.3,27.8    c-0.4,14.9-12.8,26.7-27.8,26.3C137.7,806.4,125.9,793.9,126.3,779z" />
        </g>
        <path class="st13" d="M187.9,649c0,0,6.6-0.1,7.1-1c0.5-0.9,5.2-7.4,10.6-7.8c-0.9,1.5-3,6.7-4.6,7.1c5.9,0,17.9,1.5,19.6,2.6   c-1.3,4.2-7,10.2-12.4,11.7c-7.5-0.4-13.9-4.6-13.9-4.6s-7.1,0.1-6.8-0.2S187.9,649,187.9,649z" />
        <path class="st13" d="M267.2,585.7c0,0,4.2,7.6,3.7,9c-0.6,1.5-6.7,6.5-6.7,6.5l-3.5-5.1L267.2,585.7z" />
    </g>
    <g xmlns="http://www.w3.org/2000/svg">
        <g>
            <g>
                <g>
                    <path class="st0" d="M967.6,845c-8.2-38.5-33.7-72.9-68-92.1c18.4,34.7,40.3,67.4,65.5,97.6L967.6,845z" />
                </g>
                <g>
                    <path class="st1" d="M976.8,859.5c-32.7-45.7-49.1-102.9-45.6-159c21.2,51.8,37.2,105.7,47.7,160.6L976.8,859.5z" />
                </g>
                <g>
                    <path class="st0" d="M967.5,861.1c-1-28.1-2-56.5,2.4-84.3c4.4-27.8,14.6-55.3,33.5-76.2c2.9,57.6-11.1,115.9-39.6,166      L967.5,861.1z" />
                </g>
                <g>
                    <path class="st2" d="M968.8,863.6c-18.4-53.2-15.4-113.4,8.2-164.5c14.8,53.4,1.7,110-11.4,163.8L968.8,863.6z" />
                </g>
                <g>
                    <path class="st1" d="M971.2,843.9c5.1-46.7,36.2-89.6,79-108.9c-17.3,46.5-47,88.4-85.1,120.3L971.2,843.9z" />
                </g>
            </g>
            <path class="st3" d="M1015.3,835.7l-5.3,90.6c0,4.4-3.6,7.9-7.9,7.9h-62.8c-4.4,0-7.9-3.6-7.9-7.9l-1.2-20.5l-4.1-70.1    c0-4.4,3.6-7.9,7.9-7.9h73.4c2.9,0,5.4,1.5,6.8,3.8v0C1014.9,832.8,1015.3,834.2,1015.3,835.7z" />
            <g>
                <path class="st3" d="M1015.3,835.7l-5.3,90.6c0,4.4-3.6,7.9-7.9,7.9h-62.8c-4.4,0-7.9-3.6-7.9-7.9l-1.2-20.5     c29.3-8.4,59.5-44.6,84-74.2C1014.9,832.8,1015.3,834.2,1015.3,835.7z" />
            </g>
        </g>
    </g>
</svg>